<svg xmlns="http://www.w3.org/2000/svg" xmlns:xlink="http://www.w3.org/1999/xlink" width="1545.658" height="311.311" viewBox="0 0 1545.658 311.311">
  <defs>
    <clipPath id="clip-path">
      <path id="Path_291" data-name="Path 291" d="M465,842.754c-.472,2.337-2.374,7.831-1.827,10.5,2.4,2.026,7.52,2.163,11.361,1.243s6.538,1.007,11.362,1.243,8.7-1.032,9.646-3.021-7.21-3.829-12.841-5.556a25.658,25.658,0,0,1-9.559-5.047Z" transform="translate(-463.077 -842.12)" fill="#228c7e"/>
    </clipPath>
    <clipPath id="clip-path-2">
      <path id="Path_298" data-name="Path 298" d="M327.706,808.4c-2.387.162-8.192-.211-10.628,1.019-1.318,2.834-.1,7.819,1.852,11.262s.771,6.576,1.778,11.3,3.294,8.092,5.457,8.5c2.362.447,1.79-7.968,1.964-13.86a25.757,25.757,0,0,1,2.337-10.541Z" transform="translate(-316.528 -808.402)" fill="#03aa99"/>
    </clipPath>
    <clipPath id="clip-path-3">
      <path id="Path_308" data-name="Path 308" d="M352.151,716s42.661-23.108,45.52-25.333S417.685,629.685,419,625.894c0,0,12.642-10.292,14.382-18.459l-29.212-19.118c-2.225,4.8-2.213,8.005-8.154,20.013-5.445,10.976-7.682,43.507-13.2,71.14a49.727,49.727,0,0,0-8.776,3.418c-5.159,2.486-27,25.57-27,25.57A10.665,10.665,0,0,0,352.151,716Z" transform="translate(-347.042 -588.317)" fill="#004e89"/>
    </clipPath>
  </defs>
  <g id="Header_image_-Cotact_Us-01" data-name="Header image -Cotact Us-01" transform="translate(1079.28)">
    <g id="Objects" transform="translate(-891.28)">
      <rect id="Rectangle_226" data-name="Rectangle 226" width="297.796" height="201.423" transform="translate(1011.275 106.762)" fill="#ffc253"/>
      <path id="Path_265" data-name="Path 265" d="M834.866,514.332,974.634,641.869a13.549,13.549,0,0,0,18.248,0l139.78-127.536Z" transform="translate(176.409 -407.52)" fill="#e09736"/>
      <path id="Path_266" data-name="Path 266" d="M1247.047,751.02l-148.9-155.406,148.9,142.167Z" transform="translate(62.024 -442.835)" fill="#e09736"/>
      <path id="Path_267" data-name="Path 267" d="M834.866,751.02,983.758,595.614,834.866,737.781Z" transform="translate(176.409 -442.835)" fill="#e09736"/>
      <path id="Path_268" data-name="Path 268" d="M834.866,514.332,972.5,630.619a17.4,17.4,0,0,0,22.524,0l137.642-116.287Z" transform="translate(176.409 -407.52)" fill="#ffc854"/>
      <path id="Path_269" data-name="Path 269" d="M1312.635,812.3s-9.422-4.251-8.7-14.37,7.583-12.182,13.562-15.861,6.427-9.882,6.663-17.465,5.283-15.178,15.4-14.718,13.848,2.486,21.132-6.215,17.216-8.5,21.343-3.729,4.413,13.127-1.865,18.857c-7.632,6.974-9.609,8.7-11.821,16.383-3,10.4,1.33,20.535-2.486,25.371-5.134,6.464-10.678,4.873-15.961,6.973s-5.507,4.773-5.507,4.773Z" transform="translate(-27.367 -504.118)" fill="#40c7a7"/>
      <path id="Path_270" data-name="Path 270" d="M1389.915,754.486c-15.464,9.012-42.376,36.446-46.937,65.558" transform="translate(-44.348 -511.859)" fill="none" stroke="#3b55ce" stroke-linecap="round" stroke-width="2.308"/>
      <path id="Path_271" data-name="Path 271" d="M490.144,503.52c8.875,8.1,18.546,13.6,29.746,11.461,15.762-3,28.08-19.068,28.08-19.068s4.065,5.3,4.065,5.83-10.417,21.194-29.323,25.433-35.9-9.31-35.9-9.31Z" transform="translate(327.626 -399.518)" fill="#dd7a79"/>
      <path id="Path_272" data-name="Path 272" d="M679.776,541.092a26.291,26.291,0,0,0,33.077,8.378l21.07-10.367a8.7,8.7,0,0,1,11.187,3.145l38.037,59.766a8.7,8.7,0,0,1-3.058,12.269c-12.294,6.961-37.7,18.733-65.683,16.458-39.255-3.195-64.825-39.7-108.058-107.648s-65.5-106.554-51.773-143.485c9.783-26.3,31.213-44.339,42.723-52.531a8.7,8.7,0,0,1,12.43,2.486l38.037,59.753a8.7,8.7,0,0,1-1.914,11.5l-18.3,14.668a26.3,26.3,0,0,0-6.414,33.562Z" transform="translate(299.939 -325.464)" fill="#0065ce"/>
      <path id="Path_273" data-name="Path 273" d="M657.81,413.127l15.414-12.356a8.7,8.7,0,0,0,1.9-11.5l-20.1-31.573-18.173-28.478a8.7,8.7,0,0,0-12.182-2.138,140.9,140.9,0,0,0-14.307,11.7Z" transform="translate(273.948 -325.471)" fill="#004e89"/>
      <path id="Path_274" data-name="Path 274" d="M893.018,785.726a142.624,142.624,0,0,0,16.644-8.005,8.7,8.7,0,0,0,3.244-11.884l-39.081-61.245a8.7,8.7,0,0,0-10.367-2.051l-17.887,8.776Z" transform="translate(171.758 -488.902)" fill="#004e89"/>
      <path id="Path_275" data-name="Path 275" d="M490.2,510.156l7.2,5.395s3.244,9.944-2.237,15.14l-9.534-5.743Z" transform="translate(328.141 -405.706)" fill="#e09736"/>
      <path id="Path_276" data-name="Path 276" d="M242.762,821.458a43.369,43.369,0,0,0,11.61-14.83c4.724-9.857.522-18.459-6.079-17.216-7.036,1.342-8.018-4.413-9.944-11.7-2.324-8.7-13.674-21.132-22.835-19.889-11.884,1.6-4.376,14.332-3.157,18.944s4.214,9.944-3.157,10.665c-6.712.659-9.658,6.75-4.425,13,4.972,5.929,10.392,5.842,10.64,11.871s3.99,7.719,7.148,9.174Z" transform="translate(451.326 -513.272)" fill="#91dbac"/>
      <path id="Path_277" data-name="Path 277" d="M234.68,776.466s16.16,21.132,12.107,53.128" transform="translate(437.169 -521.408)" fill="none" stroke="#3b55ce" stroke-linecap="round" stroke-width="2.308"/>
      <path id="Path_278" data-name="Path 278" d="M522.748,837.633a17.614,17.614,0,0,0,1.827-15.066c-3.568-11.5-14.233-16.806-10.392-24.326,3.195-6.215,12.766-3.1,17.825,5.345,4.873,8.092,5.246,25.172-2.486,34.047Z" transform="translate(316.091 -529.448)" fill="#40c7a7"/>
      <path id="Path_327" data-name="Path 327" d="M526.14,837.633a17.614,17.614,0,0,1-1.827-15.066c3.568-11.5,14.233-16.806,10.392-24.327-3.195-6.215-12.766-3.1-17.825,5.345-4.873,8.092-5.246,25.172,2.486,34.047Z" transform="translate(-350.424 -529.448)" fill="#40c7a7"/>
      <path id="Path_279" data-name="Path 279" d="M528.113,806.666s14.68,15.874,5.072,36.11" transform="translate(309.682 -534.529)" fill="none" stroke="#3b55ce" stroke-linecap="round" stroke-width="2.308"/>
      <path id="Path_328" data-name="Path 328" d="M536.447,806.666s-14.68,15.874-5.072,36.111" transform="translate(-359.687 -534.529)" fill="none" stroke="#3b55ce" stroke-linecap="round" stroke-width="2.308"/>
      <path id="Path_280" data-name="Path 280" d="M543.31,824.665a48.8,48.8,0,0,0,17.167-20.759c6.066-14,6.327-30.367,0-36.173-5.917-5.432-12.94-2.113-14.792,7.384s2.374,33.562-10.031,49.548Z" transform="translate(306.407 -516.48)" fill="#22a482"/>
      <path id="Path_325" data-name="Path 325" d="M557.467,824.665A48.8,48.8,0,0,1,540.3,803.906c-6.066-14-6.327-30.368,0-36.173,5.917-5.432,12.94-2.113,14.792,7.384s-2.374,33.562,10.031,49.548Z" transform="translate(-392.628 -516.48)" fill="#22a482"/>
      <path id="Path_281" data-name="Path 281" d="M558.58,774.4a84.226,84.226,0,0,1-2.374,29.609A70.764,70.764,0,0,1,544.049,828.7" transform="translate(302.759 -520.511)" fill="none" stroke="#3b55ce" stroke-linecap="round" stroke-width="2.308"/>
      <path id="Path_326" data-name="Path 326" d="M544.447,774.4a84.227,84.227,0,0,0,2.374,29.609A70.768,70.768,0,0,0,558.978,828.7" transform="translate(-391.23 -520.51)" fill="none" stroke="#3b55ce" stroke-linecap="round" stroke-width="2.308"/>
      <path id="Path_282" data-name="Path 282" d="M774.886,825.541s.261-20.771-16.222-40.126-35.315-26.328-51.6-20.411c-12.12,4.375-9.012,18.409.895,24.389,11.734,7.073,55.676,9.944,57.18,36.148Z" transform="translate(235.357 -515.541)" fill="#91dbac"/>
      <path id="Path_329" data-name="Path 329" d="M774.886,825.541s.261-20.771-16.222-40.126S723.35,759.088,707.066,765c-12.12,4.375-9.012,18.409.895,24.389,11.734,7.073,55.676,9.944,57.18,36.148Z" transform="translate(-887.186 -515.541)" fill="#91dbac"/>
      <path id="Path_283" data-name="Path 283" d="M716.2,783.128c22.375-1.243,56.658,19.354,61.369,51.151" transform="translate(227.967 -524.28)" fill="none" stroke="#3b55ce" stroke-linecap="round" stroke-width="2.308"/>
      <path id="Path_284" data-name="Path 284" d="M821.67,829.768s10.218-10.889,8.241-31.859-20.411-26.166-23.73-16.035c-2.6,7.98,15.352,26.551,8.95,47.894Z" transform="translate(188.984 -521.583)" fill="#3dc19a"/>
      <path id="Path_330" data-name="Path 330" d="M821.67,829.768s10.218-10.889,8.241-31.859-20.411-26.166-23.73-16.035c-2.6,7.98,15.352,26.551,8.95,47.894Z" transform="translate(-933.559 -521.583)" fill="#3dc19a"/>
      <path id="Path_285" data-name="Path 285" d="M822.206,788.335c3.953,5.121,11.56,26.1,3.8,46.415" transform="translate(181.909 -526.565)" fill="none" stroke="#3b55ce" stroke-linecap="round" stroke-width="2.308"/>
      <path id="Path_286" data-name="Path 286" d="M495.518,860.847c.423.808.1,2.411-3.108,3.729s-8.987.771-11.287.323-3.729-1.119-7.11-.41-8.987.4-10.678-1.032c-.584-.671-.186-2.076-.186-2.076Z" transform="translate(337.965 -558.069)" fill="#8fc9c6"/>
      <path id="Path_287" data-name="Path 287" d="M465,842.754c-.472,2.337-2.374,7.831-1.827,10.5,2.4,2.026,7.52,2.163,11.361,1.243s6.538,1.007,11.362,1.243,8.7-1.032,9.646-3.021-7.21-3.829-12.841-5.556a25.658,25.658,0,0,1-9.559-5.047Z" transform="translate(337.938 -549.933)" fill="#228c7e"/>
      <g id="Group_94" data-name="Group 94" transform="translate(801.016 292.187)" clip-path="url(#clip-path)">
        <path id="Path_288" data-name="Path 288" d="M484.241,847.992s1.131-3.182,2.648-4.2" transform="translate(-472.272 -842.846)" fill="none" stroke="#8fc9c6" stroke-linecap="round" stroke-width="1.165"/>
        <path id="Path_289" data-name="Path 289" d="M491.824,851s1.131-3.182,2.648-4.2" transform="translate(-475.567 -844.154)" fill="none" stroke="#8fc9c6" stroke-linecap="round" stroke-width="1.165"/>
        <path id="Path_290" data-name="Path 290" d="M499.408,853.983s1.131-3.182,2.648-4.214" transform="translate(-478.862 -845.443)" fill="none" stroke="#8fc9c6" stroke-linecap="round" stroke-width="1.165"/>
      </g>
      <path id="Path_292" data-name="Path 292" d="M466.482,826.756v9.323a4.067,4.067,0,0,1,1.529.883c.447.535,1.069,2.287,1.827,2.325,3.008.124,4.786-3.853,4.786-3.853l1.131-8.465Z" transform="translate(336.459 -543.258)" fill="#ff9a8d"/>
      <path id="Path_293" data-name="Path 293" d="M324.924,841.269c-.659.622-2.3.733-4.425-2s-3.12-8.465-3.294-10.8.1-3.866-1.479-6.961-2.772-8.564-1.84-10.566c.5-.746,1.952-.733,1.952-.733Z" transform="translate(402.899 -536.067)" fill="#aaeeed"/>
      <path id="Path_294" data-name="Path 294" d="M327.706,808.4c-2.387.162-8.192-.211-10.628,1.019-1.318,2.834-.1,7.819,1.852,11.262s.771,6.576,1.778,11.3,3.294,8.092,5.457,8.5c2.362.447,1.79-7.968,1.964-13.86a25.757,25.757,0,0,1,2.337-10.541Z" transform="translate(401.609 -535.284)" fill="#03aa99"/>
      <g id="Group_95" data-name="Group 95" transform="translate(718.137 273.119)" clip-path="url(#clip-path-2)">
        <path id="Path_295" data-name="Path 295" d="M333.371,827.657s3.356.249,4.748,1.43" transform="translate(-323.845 -816.768)" fill="none" stroke="#aaeeed" stroke-linecap="round" stroke-width="1.165"/>
        <path id="Path_296" data-name="Path 296" d="M332.469,835.746s3.369.249,4.761,1.442" transform="translate(-323.454 -820.282)" fill="none" stroke="#aaeeed" stroke-linecap="round" stroke-width="1.165"/>
        <path id="Path_297" data-name="Path 297" d="M331.568,843.856s3.369.249,4.761,1.442" transform="translate(-323.062 -823.806)" fill="none" stroke="#aaeeed" stroke-linecap="round" stroke-width="1.165"/>
      </g>
      <path id="Path_299" data-name="Path 299" d="M340.65,800.753l-6.066,4.326a4.127,4.127,0,0,1-.46,1.7c-.385.584-1.927,1.641-1.753,2.374.684,2.933,4.972,3.6,4.972,3.6l8.366-4.463Z" transform="translate(394.731 -531.96)" fill="#ff9a8d"/>
      <path id="Path_300" data-name="Path 300" d="M475.619,592.009c-10.442,0-18.211.783-18.211.783-3.331,1.455-9.062,9.049-10.752,13.86s.82,11.548,1.7,15.687c4.9,23.083,9.944,39.119,11.809,48.28,1.168,5.594-2.983,6.489-3.021,15.352,0,12.692.472,39.778.472,39.778a12.2,12.2,0,0,0,9.074.721s7.831-44.625,8.7-49.722c1.392-8.291,1.877-11.759,2.026-26.1C477.633,630.469,475.619,592.009,475.619,592.009Z" transform="translate(345.321 -441.268)" fill="#0065ce"/>
      <path id="Path_301" data-name="Path 301" d="M432.472,607.729c-1.753,8.179-13.462,18-13.462,18-1.33,3.8-18.484,62.563-21.356,64.8s-45.5,25.308-45.5,25.308a9.634,9.634,0,0,1-4.04-4.251,12.236,12.236,0,0,1-.982-2.8,2.039,2.039,0,0,0-.075-.4.506.506,0,0,1,0-.087s21.84-23.1,26.986-25.557a48.053,48.053,0,0,1,8.776-3.431h0c5.88-27.347,5.693-48.64,10.442-63.719a67,67,0,0,1,2.76-7.458c1.243-2.672,2.15-4.9,2.9-6.8.311-.82.6-1.579.858-2.287s.485-1.38.684-1.989c.137-.423.261-.833.385-1.243.534-1.715.92-3.1,1.342-4.4.186-.572.385-1.131.6-1.715.112-.273.224-.572.348-.845s.236-.6.373-.9h0l8.154,6.079,3.928,2.921Z" transform="translate(388.343 -439.511)" fill="#0065ce"/>
      <path id="Path_302" data-name="Path 302" d="M415.526,597.042a38.811,38.811,0,0,1-4.972,5.333c-6.054,5.283-9.708,13.475-12.94,30.479-3.642,19.143-9.745,47.609-10.479,49.374s-6.116,1.094-15.961,8.291c-7.458,5.432-18.236,16.719-23.121,21.057a12.231,12.231,0,0,1-.982-2.8,3.931,3.931,0,0,0-.075-.4.519.519,0,0,1,0-.087s21.84-23.1,26.987-25.557a48.062,48.062,0,0,1,8.776-3.431h0c5.606-27.347,5.693-48.64,10.442-63.719a63.147,63.147,0,0,1,2.772-7.458c1.243-2.673,2.15-4.91,2.884-6.824.336-.82.609-1.591.858-2.287s.485-1.38.684-1.989c.137-.423.261-.833.385-1.243.534-1.715.92-3.1,1.342-4.4.186-.572.385-1.131.6-1.715.112-.273.224-.572.348-.845s.261-.584.4-.883h0l8.154,6.091Z" transform="translate(388.372 -439.502)" fill="#4e7eac"/>
      <path id="Path_303" data-name="Path 303" d="M469.965,621.07s-5.345,7-20.013,7.545a31.188,31.188,0,0,1-16.595-3.729l3.965-6.215Z" transform="translate(350.85 -452.852)" fill="#4e7eac"/>
      <path id="Path_304" data-name="Path 304" d="M352.151,716s42.661-23.108,45.52-25.333S417.685,629.685,419,625.894c0,0,12.642-10.292,14.382-18.459l-29.212-19.118c-2.225,4.8-2.213,8.005-8.154,20.013-5.445,10.976-7.682,43.507-13.2,71.14a49.727,49.727,0,0,0-8.776,3.418c-5.159,2.486-27,25.57-27,25.57A10.665,10.665,0,0,0,352.151,716Z" transform="translate(388.351 -439.664)" fill="#004e89"/>
      <g id="Group_96" data-name="Group 96" transform="translate(735.394 148.653)" clip-path="url(#clip-path-3)">
        <path id="Path_305" data-name="Path 305" d="M426.034,594.515c-6.153,7.881-14,12.667-17.254,18.074s-5.072,17.1-9.3,38.51-8.018,35.675-9.174,36.956-8.366,2.486-19.615,10.081-24.289,19.64-24.289,19.64" transform="translate(-346.765 -591.01)" fill="none" stroke="#274d79" stroke-width="1.165"/>
        <path id="Path_306" data-name="Path 306" d="M464.105,627.529s-2.486,13.437-14.394,11.187" transform="translate(-391.648 -605.353)" fill="none" stroke="#274d79" stroke-width="1.165"/>
        <path id="Path_307" data-name="Path 307" d="M351.109,793.324a15.115,15.115,0,0,0,7.21,11.623" transform="translate(-348.809 -677.385)" fill="none" stroke="#274d79" stroke-width="1.165"/>
      </g>
      <path id="Path_309" data-name="Path 309" d="M471.845,476.658l10.106,8.652,5.793-13.748-12.033-6.949Z" transform="translate(334.129 -385.919)" fill="#ff9a8d"/>
      <path id="Path_310" data-name="Path 310" d="M488.884,475.639s-11.921-3.344-10.317-11.026l12.033,6.949Z" transform="translate(331.273 -385.919)" fill="#ba5964"/>
      <path id="Path_311" data-name="Path 311" d="M466.426,494.247A11.8,11.8,0,0,1,470.64,502c.547,4.885.982,12.194,1.392,22.81.373,9.646,1.342,37.615,1.342,37.615s-7.371,4.835-19.764,3.841c-11.846-.945-16.955-6.775-16.955-6.775s1.243-39.33,5.121-54.806c5.755-15.961,14.842-18.733,14.842-18.733Z" transform="translate(349.418 -395.192)" fill="#ffc253"/>
      <path id="Path_312" data-name="Path 312" d="M510.639,444.721c.622,1.081,3.878,5.656,4.972,6.974s-3.157,1.678-3.157,1.678Z" transform="translate(317.274 -377.277)" fill="#ba5964"/>
      <path id="Path_313" data-name="Path 313" d="M472.844,447.365a28.143,28.143,0,0,0,1.392,2.76c.708,1.168,10.616,5.2,13.238,5.507s6.091-.211,5.395-8.937-2.909-16.3-8.7-20.249-14.022.361-17.552,5.954S466.815,448.981,472.844,447.365Z" transform="translate(336.996 -368.671)" fill="#ff9a8d"/>
      <path id="Path_314" data-name="Path 314" d="M469.363,438.775h0l-1.243,4.027s-1.007.472-3.53-2.66c-2.772-3.443-7.819-9.31-7.322-13.04.659-4.885,6.215-6.65,6.215-6.65s2.859-9.037,14.034-13.848,16.16,3.282,7.533,9.248c0,0,5.979,2.983,2.2,5.246s-14.556,1.989-14.556,1.989,5.3,2.014,3.729,3.518-8.415.883-8.415.883l.858,3.443s-2.784-.858-4.289.945C462.75,434.039,465.521,439.919,469.363,438.775Z" transform="translate(340.477 -360.081)" fill="#001c45"/>
      <path id="Path_315" data-name="Path 315" d="M462.766,413.62s-3.331,7.21,2.921,12.058c0,0-6.215-.2-7.558-6.116" transform="translate(340.088 -363.764)" fill="none" stroke="#001c45" stroke-linecap="round" stroke-width="1.736"/>
      <path id="Path_316" data-name="Path 316" d="M501.264,447.223a1.082,1.082,0,0,0-1.38-.659,1.056,1.056,0,0,0-.659,1.367,1.081,1.081,0,0,0,1.367.671,1.094,1.094,0,0,0,.671-1.38Z" transform="translate(322.261 -378.051)" fill="#001c45"/>
      <path id="Path_317" data-name="Path 317" d="M499.682,442.267l-4.326,2.847a2.585,2.585,0,0,1,1.144-2.61,2.921,2.921,0,0,1,3.182-.236Z" transform="translate(323.93 -376.053)" fill="#001c45"/>
      <path id="Path_318" data-name="Path 318" d="M471.925,453.954a2.486,2.486,0,0,1,2.213-.373c.249.112,0,.535-.224.522-1.243-.1-2.548.224-2.735,1.653,0,.075-.075,0-.075,0A1.827,1.827,0,0,1,471.925,453.954Z" transform="translate(334.459 -381.078)" fill="#ba5964"/>
      <path id="Path_319" data-name="Path 319" d="M473.084,454.224c.1-.087.46.137.46.224a1.578,1.578,0,0,0-.448.7,2.052,2.052,0,0,0,.087,1.243A2.275,2.275,0,0,0,475.545,458s.062,0,0,.062a2.188,2.188,0,0,1-2.623-.932A2.349,2.349,0,0,1,473.084,454.224Z" transform="translate(333.847 -381.397)" fill="#ba5964"/>
      <path id="Path_320" data-name="Path 320" d="M460.892,500.669c-2.486,1.243-5.656,8.353-3.369,15.973s5.233,15.5,5.233,15.5,11.784-2.784,14.917-10.292c0,0-4.164-10.168-6.1-14.283S467.07,497.4,460.892,500.669Z" transform="translate(340.694 -401.179)" fill="#e09736"/>
      <path id="Path_321" data-name="Path 321" d="M479.043,564.886c2.648,2.648,6.215,5.544,8.254,6.34-.162-4.438-.323-8.2-.472-12.319L478,547.2l-5.793-1.566-2.076,6S474.829,560.66,479.043,564.886Z" transform="translate(334.874 -421.119)" fill="#e09736"/>
      <path id="Path_322" data-name="Path 322" d="M464.988,500.987c-5.569,1.479-7.458,9.472-1.865,21.853,5.382,11.871,14.046,22.735,19.367,26.44s25.955,2.486,43.208-2.61c0,0,9.832-3.53,12.567-5.954,6.091-5.395,6.389-12.555,1.914-11.5s-11.536,5.917-11.536,5.917-1.877-3.729-3.232-6.563c0,0-1.243.311-1.641,2.871s-.385,6.116-1.131,6.638c-1.976,1.38-29.634,3.729-32.928.448-3.729-3.729-9.161-13.462-13.015-22.487C472.446,506.083,470.731,499.52,464.988,500.987Z" transform="translate(339.382 -401.633)" fill="#ff9a8d"/>
      <path id="Path_323" data-name="Path 323" d="M462.518,498.239c-2.486,1.243-5.656,8.353-3.369,15.986s5.233,15.488,5.233,15.488,11.063-1.666,15.762-8.018c0,0-5.034-12.43-6.973-16.557S468.7,495.008,462.518,498.239Z" transform="translate(339.987 -400.129)" fill="#ffc253"/>
    </g>
  </g>
</svg>
